<svg width="26" height="17" viewBox="0 0 26 17" fill="none" xmlns="http://www.w3.org/2000/svg">
<path d="M24.75 0H0.45C0.330653 0 0.216193 0.0474108 0.131802 0.131802C0.0474105 0.216194 0 0.330653 0 0.45V15.75C0 15.8693 0.0474105 15.9838 0.131802 16.0682C0.216193 16.1526 0.330653 16.2 0.45 16.2H24.75C24.8693 16.2 24.9838 16.1526 25.0682 16.0682C25.1526 15.9838 25.2 15.8693 25.2 15.75V0.45C25.2 0.330653 25.1526 0.216194 25.0682 0.131802C24.9838 0.0474108 24.8693 0 24.75 0ZM0.9 1.476L8.142 7.992L0.9 14.7V1.476ZM12.6 10.8L1.605 0.9H23.595L12.6 10.8ZM8.814 8.598L12.3 11.736C12.3825 11.8098 12.4893 11.8506 12.6 11.8506C12.7107 11.8506 12.8175 11.8098 12.9 11.736L16.317 8.658L23.757 15.3H1.575L8.814 8.598ZM16.992 8.055L24.3 1.476V14.58L16.992 8.055Z" fill="#D51030"/>
</svg>
