<svg width="30" height="30" viewBox="0 0 30 30" fill="none" xmlns="http://www.w3.org/2000/svg">
<path d="M18.3842 19.7727C18.3216 19.6722 18.222 19.6005 18.1069 19.573C17.9918 19.5455 17.8704 19.5644 17.7692 19.6257L14.8112 21.4257C14.3287 21.7052 13.7591 21.794 13.2144 21.6747C12.6698 21.5553 12.1895 21.2364 11.8682 20.7807L7.84219 14.3397C7.70328 14.1187 7.60972 13.8722 7.56698 13.6147C7.52423 13.3572 7.53314 13.0937 7.59319 12.8397C7.65317 12.5829 7.76363 12.3405 7.91814 12.1268C8.07265 11.9131 8.26813 11.7322 8.49319 11.5947L11.5652 9.71969C11.6157 9.68869 11.6597 9.64799 11.6944 9.59995C11.7292 9.55191 11.7542 9.49747 11.7678 9.43976C11.7815 9.38205 11.7836 9.32221 11.774 9.26367C11.7645 9.20514 11.7435 9.14907 11.7122 9.09869L9.16519 5.01869C9.10261 4.91824 9.00297 4.84649 8.88786 4.81897C8.77275 4.79146 8.65144 4.8104 8.55019 4.87169L5.49019 6.74069C4.9044 7.09987 4.3985 7.57538 4.00376 8.13782C3.60902 8.70026 3.33383 9.33769 3.19519 10.0107C2.55319 12.7107 3.49519 16.3857 5.78719 20.0577C8.51719 24.4317 12.1412 26.9997 15.2342 26.9997C16.1553 27.0078 17.0603 26.7584 17.8472 26.2797L20.7842 24.4797C20.8347 24.4487 20.8787 24.408 20.9134 24.36C20.9482 24.3119 20.9732 24.2575 20.9868 24.1998C21.0005 24.142 21.0026 24.0822 20.993 24.0237C20.9835 23.9651 20.9625 23.9091 20.9312 23.8587L18.3842 19.7727ZM17.3792 25.4997C14.3792 27.3267 9.83119 24.8367 6.55219 19.5777C4.41919 16.1607 3.49219 12.6597 4.07119 10.2147C4.18506 9.65979 4.41119 9.13402 4.7357 8.66971C5.0602 8.20539 5.47622 7.81234 5.95819 7.51469L8.65819 5.87369L10.7282 9.19169L8.04319 10.8297C7.71673 11.0269 7.4326 11.2869 7.20722 11.5946C6.98185 11.9023 6.8197 12.2516 6.73015 12.6223C6.6406 12.9931 6.62543 13.3779 6.68551 13.7546C6.7456 14.1312 6.87974 14.4922 7.08019 14.8167L11.1002 21.2637C11.5473 21.9217 12.2282 22.3848 13.0045 22.5586C13.7808 22.7325 14.5942 22.6042 15.2792 22.1997L17.8592 20.6247L19.9292 23.9427L17.3792 25.4997Z" fill="#D51030"/>
<path d="M14.973 10.0492C15.698 10.0853 16.4042 10.2918 17.0344 10.652C17.6646 11.0122 18.201 11.5158 18.6 12.1222C18.9798 12.6952 19.2232 13.3477 19.3116 14.0294C19.4001 14.7112 19.3311 15.4042 19.11 16.0552C19.0903 16.1111 19.0818 16.1704 19.085 16.2296C19.0882 16.2888 19.1031 16.3468 19.1287 16.4003C19.1543 16.4538 19.1903 16.5017 19.2344 16.5413C19.2785 16.5809 19.3301 16.6115 19.386 16.6312C19.4419 16.6509 19.5012 16.6593 19.5604 16.6561C19.6197 16.6529 19.6777 16.6381 19.7312 16.6125C19.7847 16.5868 19.8326 16.5509 19.8722 16.5068C19.9118 16.4626 19.9423 16.4111 19.962 16.3552C20.2305 15.5752 20.3161 14.744 20.212 13.9257C20.108 13.1075 19.8171 12.3241 19.362 11.6362C18.8823 10.9133 18.2408 10.3122 17.4883 9.88051C16.7358 9.44881 15.8931 9.1984 15.027 9.14916C14.9077 9.1424 14.7905 9.18332 14.7013 9.26293C14.6122 9.34254 14.5583 9.45431 14.5515 9.57366C14.5447 9.69301 14.5857 9.81015 14.6653 9.89933C14.7449 9.9885 14.8567 10.0424 14.976 10.0492H14.973Z" fill="#D51030"/>
<path d="M15.8005 5.55383C15.7414 5.54694 15.6815 5.55175 15.6243 5.568C15.567 5.58424 15.5136 5.6116 15.4669 5.64851C15.4202 5.68542 15.3813 5.73116 15.3523 5.78312C15.3233 5.83508 15.3049 5.89224 15.298 5.95133C15.2911 6.01043 15.2959 6.0703 15.3121 6.12754C15.3284 6.18477 15.3557 6.23825 15.3927 6.28491C15.4296 6.33157 15.4753 6.3705 15.5273 6.39949C15.5792 6.42847 15.6364 6.44694 15.6955 6.45383C16.8691 6.58726 17.9985 6.97935 19.0023 7.60187C20.0061 8.22439 20.8593 9.06182 21.5005 10.0538C22.1298 11.0228 22.5445 12.1152 22.7168 13.2577C22.8891 14.4002 22.815 15.5663 22.4995 16.6778C22.4791 16.7358 22.4708 16.7972 22.4751 16.8585C22.4794 16.9197 22.4961 16.9794 22.5244 17.034C22.5526 17.0885 22.5917 17.1367 22.6392 17.1755C22.6867 17.2144 22.7417 17.2431 22.8008 17.2599C22.8598 17.2767 22.9217 17.2813 22.9826 17.2733C23.0434 17.2653 23.102 17.2449 23.1547 17.2135C23.2074 17.182 23.2532 17.14 23.2891 17.0902C23.325 17.0404 23.3503 16.9838 23.3635 16.9238C23.7139 15.6903 23.7967 14.3961 23.6063 13.128C23.4159 11.8599 22.9567 10.6471 22.2595 9.57083C21.5473 8.46495 20.5985 7.53098 19.4815 6.83631C18.3645 6.14164 17.1073 5.70361 15.8005 5.55383Z" fill="#D51030"/>
<path d="M24.8617 7.83472C23.9004 6.36676 22.6355 5.12197 21.1523 4.18424C19.6691 3.24652 18.0021 2.63766 16.2637 2.39872C16.1444 2.38241 16.0234 2.41417 15.9275 2.48703C15.8316 2.55989 15.7685 2.66787 15.7522 2.78722C15.7359 2.90656 15.7677 3.0275 15.8405 3.12343C15.9134 3.21935 16.0214 3.28241 16.1407 3.29872C17.751 3.51881 19.2954 4.08147 20.6699 4.9488C22.0444 5.81612 23.217 6.96796 24.1087 8.32672C24.9794 9.65602 25.5587 11.1547 25.8085 12.724C26.0582 14.2933 25.9728 15.8978 25.5577 17.4317C25.5423 17.4888 25.5383 17.5484 25.5459 17.6071C25.5536 17.6658 25.5727 17.7224 25.6022 17.7737C25.6318 17.8249 25.6711 17.8699 25.7181 17.9059C25.765 17.942 25.8186 17.9684 25.8757 17.9837C25.9139 17.9938 25.9532 17.9988 25.9927 17.9987C26.0918 17.9988 26.1881 17.9662 26.2667 17.906C26.3454 17.8458 26.402 17.7614 26.4277 17.6657C26.8753 16.0093 26.9671 14.277 26.6972 12.5826C26.4273 10.8881 25.8018 9.27006 24.8617 7.83472Z" fill="#D51030"/>
</svg>
