<svg width="43" height="43" viewBox="0 0 43 43" fill="none" xmlns="http://www.w3.org/2000/svg">
<path d="M21.7201 27.4724L36.1402 13.0717C36.2802 12.9309 36.447 12.8197 36.6307 12.7447C36.8145 12.6696 37.0114 12.6321 37.2099 12.6345C37.4084 12.6369 37.6043 12.6791 37.7862 12.7587C37.9681 12.8382 38.1321 12.9534 38.2687 13.0975C38.5484 13.3922 38.7022 13.7843 38.6974 14.1906C38.6926 14.5969 38.5295 14.9853 38.2429 15.2733L22.7564 30.7382C22.6175 30.8781 22.452 30.9889 22.2697 31.0641C22.0875 31.1393 21.892 31.1775 21.6949 31.1763C21.4977 31.1751 21.3027 31.1346 21.1214 31.0571C20.94 30.9797 20.7759 30.8669 20.6387 30.7253L4.73943 14.4477C4.45805 14.1563 4.30078 13.767 4.30078 13.3619C4.30078 12.9568 4.45805 12.5676 4.73943 12.2762C4.8777 12.1338 5.04314 12.0206 5.22595 11.9433C5.40875 11.866 5.60521 11.8262 5.80368 11.8262C6.00216 11.8262 6.19861 11.866 6.38142 11.9433C6.56422 12.0206 6.72966 12.1338 6.86793 12.2762L21.7201 27.4724Z" fill="white"/>
</svg>
